<svg width="56" height="56" fill="none" xmlns="http://www.w3.org/2000/svg"><g clip-path="url('#clip0_2_302')"><path d="M56 23.484h-2.03l-3.025 1.591a4.497 4.497 0 0 0-1.076-.442l-3.805-.952v-.433a6.343 6.343 0 0 0 2.71-5.184v-1.578c0-3.51-2.75-6.446-6.128-6.548a6.774 6.774 0 0 0-.51.01l.986-2.31-4.783-4.781-2.82 1.835a15.276 15.276 0 0 0-3.38-1.402L31.442 0H24.56l-.697 3.29c-1.176.33-2.31.8-3.38 1.403l-2.82-1.835-4.78 4.779.97 2.311c-.036-.001-.072-.008-.109-.009a6.275 6.275 0 0 0-4.596 1.782 6.265 6.265 0 0 0-1.921 4.537v1.806a6.34 6.34 0 0 0 2.71 5.183v.434l-2.483.62-4.499-2.624H0v18.716l8.886 2.962h1.73l.216-.757 2.724 1.635a2.812 2.812 0 0 0 2.712 2.725 2.812 2.812 0 0 0 2.71 2.71 2.812 2.812 0 0 0 2.71 2.709 2.817 2.817 0 0 0 2.809 2.72c.564 0 1.117-.176 1.583-.49l.8.707a2.75 2.75 0 0 0 1.817.686h.167a2.75 2.75 0 0 0 2.745-2.713 2.747 2.747 0 0 0 2.71-2.71 2.747 2.747 0 0 0 2.71-2.712 2.777 2.777 0 0 0 2.7-3.042L56 36.687V23.484Zm-9.032-6.998v1.578c0 1.604-.866 3.101-2.261 3.909l-.452.261.004 2.858 4.513 1.128-9.933 5.228v-2.434c0-1.214-.49-2.326-1.294-3.147l3.1-.775v-2.86l-.45-.26a4.529 4.529 0 0 1-2.26-3.908v-1.806c0-1.232.487-2.384 1.372-3.241a4.454 4.454 0 0 1 3.284-1.272c2.413.072 4.377 2.199 4.377 4.74ZM29.362 30.738l-4.089-1.307a11.154 11.154 0 0 0-5.788-.264l-.517.115v-.268c0-1.245.844-2.326 2.052-2.629l5.174-1.293v-2.86l-.451-.26a4.529 4.529 0 0 1-2.26-3.908v-1.806c0-1.232.488-2.384 1.373-3.241a4.466 4.466 0 0 1 3.284-1.272c2.413.072 4.376 2.199 4.376 4.74v1.58c0 1.603-.866 3.1-2.26 3.908l-.452.261.003 2.858 5.173 1.293a2.708 2.708 0 0 1 2.052 2.63v3.384l-.223.117h-.553l-5.553-1.587a5.695 5.695 0 0 0-1.341-.191ZM19.17 13.518A9.966 9.966 0 0 1 28 8.13c3.684 0 7.084 2.075 8.793 5.317a6.282 6.282 0 0 0-.664 2.812v1.806a6.34 6.34 0 0 0 2.71 5.183v.434l-3.613.904-3.614-.904v-.433a6.343 6.343 0 0 0 2.71-5.184v-1.578c0-3.51-2.749-6.446-6.128-6.548a6.275 6.275 0 0 0-4.596 1.782 6.27 6.27 0 0 0-1.92 4.538v1.806a6.34 6.34 0 0 0 2.71 5.183v.434l-3.614.904-3.614-.904v-.433a6.343 6.343 0 0 0 2.711-5.184v-1.578a6.657 6.657 0 0 0-.7-2.968Zm-4.154-5.462 2.886-2.886 2.54 1.653.486-.298a13.477 13.477 0 0 1 3.91-1.622l.556-.133.629-2.964h3.955l.627 2.963.555.133a13.49 13.49 0 0 1 3.911 1.622l.486.298 2.54-1.653 2.883 2.883-1.025 2.399c-.697.3-1.344.722-1.907 1.268-.037.036-.068.075-.105.112-2.127-3.383-5.89-5.508-9.943-5.508-4.083 0-7.855 2.145-9.978 5.562a6.371 6.371 0 0 0-1.992-1.413l-1.014-2.416Zm-3.274 17.036v-2.86l-.45-.26a4.529 4.529 0 0 1-2.26-3.908v-1.806c0-1.232.487-2.384 1.372-3.241a4.458 4.458 0 0 1 3.284-1.272c2.413.072 4.376 2.199 4.376 4.74v1.58c0 1.603-.866 3.1-2.26 3.908l-.452.261.004 2.858 3.099.775a4.494 4.494 0 0 0-1.294 3.147v.67l-2.817.626.073-.256.035-1.67-4.764-2.778 2.054-.514Zm-9.936-1.608h.659l6.496 3.789-3.278 13.11-3.877-1.293V23.484ZM9.18 41.548 7.4 40.956l3.184-12.736 2.06 1.202v.258l-3.39 11.868h-.076Zm6.176 2.6c0-.266.107-.527.296-.716l1.588-1.587a1.014 1.014 0 0 1 1.432 1.432l-1.587 1.588a1.014 1.014 0 0 1-1.729-.716Zm2.71 2.71c0-.266.107-.527.296-.716l1.588-1.588a1.014 1.014 0 0 1 1.432 1.432l-1.588 1.589a1.014 1.014 0 0 1-1.729-.716Zm2.71 2.71c0-.266.107-.527.296-.716l1.587-1.588a1.014 1.014 0 0 1 1.432 1.432l-1.587 1.588a1.014 1.014 0 0 1-1.729-.716Zm3.722 3.722a1.014 1.014 0 0 1-.717-1.728l1.588-1.588a1.014 1.014 0 0 1 1.433 1.432l-1.588 1.588a1.02 1.02 0 0 1-.716.296Zm4.367.904h-.167a.935.935 0 0 1-.622-.236l-.676-.596.679-.678c.242-.243.43-.53.569-.84l.82.684a.943.943 0 0 1-.603 1.666Zm8.1-8.13h-.156a.97.97 0 0 1-.621-.225l-4.898-4.082-1.158 1.388 4.757 3.963a.942.942 0 0 1-.604 1.666h-.197a.942.942 0 0 1-.603-.219l-4.906-4.087-1.157 1.388 4.756 3.963a.943.943 0 0 1-.603 1.664c-.347 0-.684-.122-.95-.343l-2.016-1.68a2.81 2.81 0 0 0-2.425-1.579 2.812 2.812 0 0 0-2.71-2.71 2.812 2.812 0 0 0-2.71-2.71 2.816 2.816 0 0 0-2.808-2.72c-.742 0-1.468.302-1.993.827l-1.588 1.587c-.095.095-.173.203-.253.31l-2.775-1.666 2.433-8.512 6.097-1.356a9.304 9.304 0 0 1 4.846.22l1.33.425-4.51 2.255a3.01 3.01 0 0 0-1.671 2.706v.179a3.03 3.03 0 0 0 3.026 3.026c.548 0 1.087-.15 1.556-.432l3.364-2.017a1.864 1.864 0 0 1 2.165.209l7.632 6.868a.972.972 0 0 1-.65 1.694Zm17.23-10.493L38.977 43.18a2.516 2.516 0 0 0-.155-.151l-7.63-6.868a3.638 3.638 0 0 0-4.305-.416l-3.365 2.017a1.22 1.22 0 0 1-1.844-1.046v-.179c0-.465.258-.882.673-1.09l5.039-2.519a3.926 3.926 0 0 1 2.815-.261l5.676 1.621 1.374.035 16.938-8.915V35.57Z" fill="#19BCE4"/></g><defs><clipPath id="clip0_2_302"><path fill="#fff" d="M0 0h56v56H0z"/></clipPath></defs></svg>