<svg width="56" height="56" fill="none" xmlns="http://www.w3.org/2000/svg"><g clip-path="url('#clip0_2_304')" fill="#19BCE4"><path d="M48.378 21.678v-1.3C48.378 9.115 39.265.001 28.001.001 16.765.001 7.623 9.142 7.623 20.378v1.3C3.153 22.945-.26 27.214.017 32.373c.299 5.577 4.977 9.939 10.48 9.939a4.904 4.904 0 0 0 4.913-4.904V26.182c0-2.57-1.982-4.688-4.492-4.886v-.918c0-9.42 7.663-17.083 17.083-17.083 9.442 0 17.083 7.64 17.083 17.083v.918c-2.508.195-4.492 2.315-4.492 4.886v11.227a4.901 4.901 0 0 0 4.492 4.884c0 4.458-3.49 7.559-7.406 7.559h-3.586a4.508 4.508 0 0 0-4.188-2.855h-3.807a4.507 4.507 0 0 0-4.502 4.502A4.507 4.507 0 0 0 26.098 56h3.807a4.508 4.508 0 0 0 4.188-2.855h3.586c5.9 0 10.7-4.8 10.7-10.702v-.54c4.203-1.211 7.363-4.991 7.607-9.53.276-5.143-3.122-9.424-7.607-10.696Zm-36.263 4.504v11.226c0 .833-.64 1.63-1.744 1.608-3.76-.073-6.864-3.069-7.065-6.82a7.217 7.217 0 0 1 7.21-7.623h.029c.866.003 1.57.725 1.57 1.609Zm17.789 26.525h-3.806a1.21 1.21 0 0 1-1.208-1.208 1.21 1.21 0 0 1 1.208-1.208h3.806c.667 0 1.21.544 1.208 1.21a1.21 1.21 0 0 1-1.208 1.206Zm22.792-20.51c-.202 3.75-3.305 6.746-7.065 6.82-1.085.021-1.745-.759-1.745-1.609V26.182c0-.884.704-1.605 1.564-1.609h.035c4.13 0 7.435 3.45 7.21 7.624Z"/><path d="m29.164 40.896 7.605-7.605a6.059 6.059 0 0 0 0-8.573c-2.179-2.18-5.956-2.617-8.77.197-2.775-2.775-6.557-2.41-8.77-.197a6.059 6.059 0 0 0 0 8.573l7.606 7.605a1.647 1.647 0 0 0 2.329 0Zm-7.606-13.849a2.771 2.771 0 0 1 3.915 0l1.361 1.361a1.647 1.647 0 0 0 2.33 0l1.361-1.361a2.771 2.771 0 0 1 3.915 0 2.767 2.767 0 0 1 0 3.915L28 37.402l-6.442-6.44a2.767 2.767 0 0 1 0-3.915Z"/></g><defs><clipPath id="clip0_2_304"><path fill="#fff" d="M0 0h56v56H0z"/></clipPath></defs></svg>