<svg width="45" height="45" fill="none" xmlns="http://www.w3.org/2000/svg"><path opacity=".1" d="M44 22.5C44 34.374 34.374 44 22.5 44S1 34.374 1 22.5 10.626 1 22.5 1 44 10.626 44 22.5Z" stroke="#0A142F" stroke-width="2"/><path d="M25.868 19.942a.78.78 0 1 0 0-1.56.78.78 0 0 0 0 1.56Z" fill="#0A142F"/><path fill-rule="evenodd" clip-rule="evenodd" d="M19.25 22.5a3.253 3.253 0 0 0 3.25 3.25 3.253 3.253 0 0 0 3.25-3.25 3.253 3.253 0 0 0-3.25-3.25 3.253 3.253 0 0 0-3.25 3.25Zm1.625 0c0-.896.729-1.625 1.625-1.625s1.625.729 1.625 1.625-.729 1.625-1.625 1.625a1.627 1.627 0 0 1-1.625-1.625Z" fill="#0A142F"/><path fill-rule="evenodd" clip-rule="evenodd" d="M19.25 29h6.5c1.67 0 3.25-1.58 3.25-3.25v-6.5c0-1.67-1.58-3.25-3.25-3.25h-6.5C17.58 16 16 17.58 16 19.25v6.5c0 1.67 1.58 3.25 3.25 3.25Zm-1.625-9.75c0-.76.865-1.625 1.625-1.625h6.5c.76 0 1.625.865 1.625 1.625v6.5c0 .76-.865 1.625-1.625 1.625h-6.5c-.774 0-1.625-.85-1.625-1.625v-6.5Z" fill="#0A142F"/></svg>