<svg width="96" height="16" fill="none" xmlns="http://www.w3.org/2000/svg"><g clip-path="url('#clip0_2_152')"><path d="M7.312 1.087a.75.75 0 0 1 1.376 0l1.404 3.237a1.5 1.5 0 0 0 1.234.896l3.512.335a.75.75 0 0 1 .425 1.309l-2.645 2.335a1.5 1.5 0 0 0-.471 1.45l.767 3.444a.75.75 0 0 1-1.113.809l-3.038-1.794a1.5 1.5 0 0 0-1.526 0L4.2 14.902a.75.75 0 0 1-1.113-.809l.767-3.444a1.5 1.5 0 0 0-.471-1.45L.737 6.864a.75.75 0 0 1 .425-1.31l3.512-.334a1.5 1.5 0 0 0 1.234-.896l1.404-3.237Z" fill="#FEBB35"/></g><g clip-path="url('#clip1_2_152')"><path d="M27.312 1.087a.75.75 0 0 1 1.376 0l1.404 3.237a1.5 1.5 0 0 0 1.234.896l3.512.335a.75.75 0 0 1 .425 1.309l-2.645 2.335a1.5 1.5 0 0 0-.471 1.45l.767 3.444a.75.75 0 0 1-1.113.809l-3.038-1.794a1.5 1.5 0 0 0-1.526 0L24.2 14.902a.75.75 0 0 1-1.113-.809l.767-3.444a1.5 1.5 0 0 0-.471-1.45l-2.645-2.335a.75.75 0 0 1 .425-1.31l3.512-.334a1.5 1.5 0 0 0 1.234-.896l1.404-3.237Z" fill="#FEBB35"/></g><g clip-path="url('#clip2_2_152')"><path d="M47.312 1.087a.75.75 0 0 1 1.376 0l1.404 3.237a1.5 1.5 0 0 0 1.234.896l3.512.335a.75.75 0 0 1 .425 1.309l-2.645 2.335a1.5 1.5 0 0 0-.471 1.45l.767 3.444a.75.75 0 0 1-1.113.809l-3.038-1.794a1.5 1.5 0 0 0-1.526 0L44.2 14.902a.75.75 0 0 1-1.113-.809l.767-3.444a1.5 1.5 0 0 0-.471-1.45l-2.645-2.335a.75.75 0 0 1 .425-1.31l3.512-.334a1.5 1.5 0 0 0 1.234-.896l1.404-3.237Z" fill="#FEBB35"/></g><g clip-path="url('#clip3_2_152')"><path d="M67.312 1.087a.75.75 0 0 1 1.376 0l1.404 3.237a1.5 1.5 0 0 0 1.234.896l3.512.335a.75.75 0 0 1 .425 1.309l-2.645 2.335a1.5 1.5 0 0 0-.471 1.45l.767 3.444a.75.75 0 0 1-1.113.809l-3.038-1.794a1.5 1.5 0 0 0-1.526 0L64.2 14.902a.75.75 0 0 1-1.113-.809l.767-3.444a1.5 1.5 0 0 0-.471-1.45l-2.645-2.335a.75.75 0 0 1 .425-1.31l3.512-.334a1.5 1.5 0 0 0 1.234-.896l1.404-3.237Z" fill="#FEBB35"/></g><g clip-path="url('#clip4_2_152')"><path d="M87.312 1.087a.75.75 0 0 1 1.376 0l1.404 3.237a1.5 1.5 0 0 0 1.234.896l3.512.335a.75.75 0 0 1 .425 1.309l-2.645 2.335a1.5 1.5 0 0 0-.471 1.45l.767 3.444a.75.75 0 0 1-1.113.809l-3.038-1.794a1.5 1.5 0 0 0-1.526 0L84.2 14.902a.75.75 0 0 1-1.113-.809l.767-3.444a1.5 1.5 0 0 0-.471-1.45l-2.645-2.335a.75.75 0 0 1 .425-1.31l3.512-.334a1.5 1.5 0 0 0 1.234-.896l1.404-3.237Z" fill="#FEBB35"/></g><defs><clipPath id="clip0_2_152"><path fill="#fff" d="M0 0h16v16H0z"/></clipPath><clipPath id="clip1_2_152"><path fill="#fff" transform="translate(20)" d="M0 0h16v16H0z"/></clipPath><clipPath id="clip2_2_152"><path fill="#fff" transform="translate(40)" d="M0 0h16v16H0z"/></clipPath><clipPath id="clip3_2_152"><path fill="#fff" transform="translate(60)" d="M0 0h16v16H0z"/></clipPath><clipPath id="clip4_2_152"><path fill="#fff" transform="translate(80)" d="M0 0h16v16H0z"/></clipPath></defs></svg>