<svg width="56" height="56" fill="none" xmlns="http://www.w3.org/2000/svg"><g clip-path="url('#clip0_2_67')" fill="#029ED9"><path d="M17.828 48.781h20.344c.604 0 1.094-.49 1.094-1.093v-15.75c0-.605-.49-1.094-1.094-1.094H17.828c-.604 0-1.094.49-1.094 1.093v15.75c0 .605.49 1.094 1.094 1.094Zm1.094-7.875h7.984v5.688h-7.984v-5.688Zm10.172 5.688v-5.688h7.984v5.688h-7.984Zm7.984-7.875h-7.984V33.03h7.984v5.688ZM26.906 33.03v5.688h-7.984V33.03h7.984Z"/><path d="m54.627 23.883-4.534-3.826V7c0-.604-.49-1.094-1.094-1.094h-7c-.603 0-1.093.49-1.093 1.094v5.304L28.705 2.008a1.093 1.093 0 0 0-1.41 0L1.371 23.883a1.094 1.094 0 0 0 .706 1.93h2.078v29.093c0 .604.49 1.094 1.094 1.094h45.5c.603 0 1.093-.49 1.093-1.094V25.812h2.078a1.094 1.094 0 0 0 .706-1.93ZM43.093 8.093h4.813v10.118l-4.813-4.061V8.094ZM28 4.276l22.93 19.35H5.07L28 4.275Zm21.657 49.537H6.343v-28h43.313v28Z"/><path d="M27.501 19.705a.705.705 0 0 0 .997 0l2.916-2.916A2.414 2.414 0 1 0 28 13.375a2.414 2.414 0 0 0-3.415 3.414l2.916 2.916ZM7.84 11.123c.381.382.889.592 1.428.592.54 0 1.048-.21 1.43-.591l3.835-3.836a4.274 4.274 0 0 0 0-6.038A4.241 4.241 0 0 0 11.513 0a4.24 4.24 0 0 0-2.246.637 4.277 4.277 0 0 0-5.263.613 4.274 4.274 0 0 0 0 6.038l3.835 3.835ZM5.55 2.797a2.076 2.076 0 0 1 1.473-.609c.533 0 1.066.203 1.472.61a1.094 1.094 0 0 0 1.547 0c.393-.394.916-.61 1.472-.61a2.084 2.084 0 0 1 1.472 3.554L9.268 9.458 5.551 5.74a2.084 2.084 0 0 1 0-2.944Z"/></g><defs><clipPath id="clip0_2_67"><path fill="#fff" d="M0 0h56v56H0z"/></clipPath></defs></svg>